name analog
datacolumns 19
datarows 41
range 0.20500000000000002 0.225
endheader
time	ground_force_vx	ground_force_vy	ground_force_vz	ground_force_px	ground_force_py	ground_force_pz	l_ground_force_vx	l_ground_force_vy	l_ground_force_vz	l_ground_force_px	l_ground_force_py	l_ground_force_pz	ground_torque_x	ground_torque_y	ground_torque_z	l_ground_torque_x	l_ground_torque_y	l_ground_torque_z
0.20500000000000002	-0.0	-0.0	-0.0	1.7887729406356812	36.119285583496094	-372.2027282714844	-2.572612762451172	-38.33161163330078	-396.07275390625	-0.0	-0.0	-0.0	-0.0	-0.0	-0.0	109532.0625	10453.826171875	-4253.5234375
0.20550000000000002	-0.0	-0.0	-0.0	1.27790367603302	35.647361755371094	-370.686279296875	-3.640455484390259	-37.94431686401367	-396.9181823730469	-0.0	-0.0	-0.0	-0.0	-0.0	-0.0	109683.75	10462.2880859375	-4467.5439453125
0.20600000000000002	-0.0	-0.0	-0.0	1.5165786743164062	36.24246597290039	-370.419189453125	-3.831583023071289	-37.64198303222656	-397.2817993164063	-0.0	-0.0	-0.0	-0.0	-0.0	-0.0	109695.2109375	10811.88671875	-4507.419921875
0.20650000000000002	-0.0	-0.0	-0.0	0.7584534883499146	35.93628692626953	-368.9404602050781	-3.984030961990357	-37.44839477539063	-396.27142333984375	-0.0	-0.0	-0.0	-0.0	-0.0	-0.0	109630.4453125	11074.25390625	-4800.9189453125
0.20700000000000002	-0.0	-0.0	-0.0	0.6411722302436829	35.88047409057617	-369.2713928222656	-4.591842651367188	-38.08767318725586	-397.4675598144531	-0.0	-0.0	-0.0	-0.0	-0.0	-0.0	109694.9296875	11401.158203125	-4924.4580078125
0.20750000000000002	-0.0	-0.0	-0.0	0.2283119112253189	36.19300079345703	-369.5819091796875	-5.394527435302734	-38.24782943725586	-395.73919677734375	-0.0	-0.0	-0.0	-0.0	-0.0	-0.0	109686.796875	11480.814453125	-5264.08642578125
0.20800000000000002	-0.0	-0.0	-0.0	0.3236879408359527	35.48414611816406	-366.1569213867188	-5.943622589111328	-38.20988464355469	-397.0514526367188	-0.0	-0.0	-0.0	-0.0	-0.0	-0.0	109483.9453125	12162.8779296875	-5431.2314453125
0.2085	-0.0	-0.0	-0.0	0.1123558357357978	35.69179153442383	-365.6066284179688	-6.725302696228027	-38.63496780395508	-396.7222290039063	-0.0	-0.0	-0.0	-0.0	-0.0	-0.0	109753.765625	12330.3359375	-5578.54150390625
0.209	-0.0	-0.0	-0.0	-0.2606382369995117	35.95241165161133	-364.35150146484375	-7.268795490264893	-38.41447067260742	-395.8724365234375	-0.0	-0.0	-0.0	-0.0	-0.0	-0.0	109196.6796875	12638.28125	-5892.13720703125
0.2095	-0.0	-0.0	-0.0	-0.5989198684692383	35.36116027832031	-363.0403442382813	-8.017163276672363	-38.707130432128906	-396.0032653808594	-0.0	-0.0	-0.0	-0.0	-0.0	-0.0	109014.984375	12942.302734375	-5983.55517578125
0.21	-0.0	-0.0	-0.0	-0.7375571727752686	35.53792190551758	-360.01971435546875	-8.792872428894043	-39.30915451049805	-395.3284606933594	-0.0	-0.0	-0.0	-0.0	-0.0	-0.0	108688.6953125	13222.55078125	-6340.20751953125
0.2105	-0.0	-0.0	-0.0	-0.4623140692710876	35.33603286743164	-358.2532043457031	-9.574371337890623	-39.16565704345703	-394.7860412597656	-0.0	-0.0	-0.0	-0.0	-0.0	-0.0	108626.546875	13553.779296875	-6591.16357421875
0.211	-0.0	-0.0	-0.0	-0.7217496633529663	34.234134674072266	-355.6522216796875	-10.402213096618652	-39.545169830322266	-394.06298828125	-0.0	-0.0	-0.0	-0.0	-0.0	-0.0	108387.828125	13966.7216796875	-6826.97509765625
0.2115	-0.0	-0.0	-0.0	-0.4299105107784271	34.64796447753906	-351.60577392578125	-10.790026664733888	-39.69594192504883	-391.086669921875	-0.0	-0.0	-0.0	-0.0	-0.0	-0.0	107800.0390625	14082.486328125	-7226.1181640625
0.212	-0.0	-0.0	-0.0	-0.1535276025533676	33.70735549926758	-348.10809326171875	-11.548684120178224	-39.72854995727539	-392.033203125	-0.0	-0.0	-0.0	-0.0	-0.0	-0.0	107508.9296875	14374.4267578125	-7372.5458984375
0.2125	-0.0	-0.0	-0.0	0.4321044087409973	33.63627624511719	-345.1202697753906	-12.242088317871094	-40.04205322265625	-389.0484924316406	-0.0	-0.0	-0.0	-0.0	-0.0	-0.0	106900.21875	14663.005859375	-7612.87109375
0.213	-0.0	-0.0	-0.0	0.105168417096138	32.91447448730469	-342.7108764648437	-12.379283905029297	-39.72866821289063	-388.3513488769531	-0.0	-0.0	-0.0	-0.0	-0.0	-0.0	106384.0234375	14581.2890625	-7718.09423828125
0.2135	-0.0	-0.0	-0.0	0.6977750658988953	32.34809875488281	-341.6510009765625	-12.87917709350586	-39.72871780395508	-388.06634521484375	-0.0	-0.0	-0.0	-0.0	-0.0	-0.0	106197.7578125	14675.1337890625	-7958.4375
0.214	-0.0	-0.0	-0.0	0.5252962708473206	32.51676559448242	-338.18145751953125	-13.056538581848145	-40.250301361083984	-386.2248840332031	-0.0	-0.0	-0.0	-0.0	-0.0	-0.0	105714.7109375	15040.5234375	-7980.2080078125
0.2145	-0.0	-0.0	-0.0	0.6505805253982544	32.75814437866211	-337.0370483398437	-13.28182888031006	-39.953224182128906	-386.4479675292969	-0.0	-0.0	-0.0	-0.0	-0.0	-0.0	105956.7578125	14805.0302734375	-8079.9248046875
0.215	-0.0	-0.0	-0.0	0.4932337701320648	32.270355224609375	-337.432861328125	-13.38627815246582	-40.39473724365234	-386.5108642578125	-0.0	-0.0	-0.0	-0.0	-0.0	-0.0	105766.109375	14842.2275390625	-8107.40966796875
0.2155	-0.0	-0.0	-0.0	-0.3364437818527221	32.44346618652344	-338.4703674316406	-13.572750091552734	-40.90873718261719	-383.9049682617188	-0.0	-0.0	-0.0	-0.0	-0.0	-0.0	105816.546875	14814.6494140625	-8177.6552734375
0.216	-0.0	-0.0	-0.0	-0.9032897353172302	32.29638671875	-335.3531188964844	-13.661460876464844	-41.63100051879883	-386.9602661132813	-0.0	-0.0	-0.0	-0.0	-0.0	-0.0	105894.0703125	15161.6767578125	-8183.189453125
0.2165	-0.0	-0.0	-0.0	-0.8339834213256836	32.23009490966797	-332.1898498535156	-13.833090782165527	-41.54255676269531	-386.8599853515625	-0.0	-0.0	-0.0	-0.0	-0.0	-0.0	105971.1640625	15139.337890625	-8261.7265625
0.217	-0.0	-0.0	-0.0	-1.353629231452942	32.26520538330078	-333.51007080078125	-13.379650115966797	-41.96841430664063	-387.84576416015625	-0.0	-0.0	-0.0	-0.0	-0.0	-0.0	106130.7578125	15024.052734375	-8275.4736328125
0.2175	-0.0	-0.0	-0.0	-1.4890592098236084	32.296024322509766	-331.7928161621094	-13.630202293395996	-41.83840560913086	-386.5108642578125	-0.0	-0.0	-0.0	-0.0	-0.0	-0.0	106200.40625	15167.326171875	-8329.78515625
0.218	-0.0	-0.0	-0.0	-1.5656263828277588	32.074554443359375	-329.0911865234375	-13.129196166992188	-42.49354934692383	-385.647216796875	-0.0	-0.0	-0.0	-0.0	-0.0	-0.0	105808.796875	14876.4052734375	-8216.24609375
0.2185	-0.0	-0.0	-0.0	-1.977920413017273	32.02584457397461	-325.924560546875	-12.7855806350708	-42.15605163574219	-387.4363098144531	-0.0	-0.0	-0.0	-0.0	-0.0	-0.0	105667.734375	14895.7177734375	-7969.763671875
0.219	-0.0	-0.0	-0.0	-1.9343819618225095	31.623836517333984	-323.0390014648437	-12.350224494934082	-41.71464157104492	-385.3261413574219	-0.0	-0.0	-0.0	-0.0	-0.0	-0.0	104921.7265625	14676.3408203125	-7968.01123046875
0.2195	-0.0	-0.0	-0.0	-2.2757773399353027	30.94522476196289	-316.44921875	-12.269280433654783	-41.76439666748047	-382.7772216796875	-0.0	-0.0	-0.0	-0.0	-0.0	-0.0	104687.28125	14495.4775390625	-7742.27001953125
0.22	-0.0	-0.0	-0.0	-2.378446578979492	31.44642639160156	-313.32452392578125	-11.48967170715332	-41.833961486816406	-378.9026184082031	-0.0	-0.0	-0.0	-0.0	-0.0	-0.0	104019.28125	14391.0712890625	-7553.462890625
0.2205	-0.0	-0.0	-0.0	-2.3495888710021973	30.378421783447266	-308.0921325683594	-11.05831527709961	-41.45327377319336	-378.239990234375	-0.0	-0.0	-0.0	-0.0	-0.0	-0.0	103510.625	14162.1240234375	-7483.52197265625
0.221	-0.0	-0.0	-0.0	-1.947646260261536	29.66615104675293	-303.500244140625	-10.68842315673828	-40.73142623901367	-374.18060302734375	-0.0	-0.0	-0.0	-0.0	-0.0	-0.0	102687.203125	13862.5927734375	-7289.8974609375
0.2215	-0.0	-0.0	-0.0	-2.334409236907959	30.482192993164062	-298.3188171386719	-9.712750434875488	-40.86278533935547	-373.0046691894531	-0.0	-0.0	-0.0	-0.0	-0.0	-0.0	101924.109375	13665.1416015625	-7062.134765625
0.222	-0.0	-0.0	-0.0	-2.245137929916382	29.710147857666016	-296.0824279785156	-9.105242729187012	-40.74454498291016	-370.2717590332031	-0.0	-0.0	-0.0	-0.0	-0.0	-0.0	101287.8984375	13280.82421875	-6858.5283203125
0.2225	-0.0	-0.0	-0.0	-2.602303981781006	29.442609786987305	-292.96514892578125	-8.308789253234863	-40.55324172973633	-367.53851318359375	-0.0	-0.0	-0.0	-0.0	-0.0	-0.0	100462.09375	13100.3369140625	-6601.62646484375
0.223	-0.0	-0.0	-0.0	-2.572351455688477	29.44320297241211	-288.7259521484375	-7.599199771881103	-40.186370849609375	-363.41217041015625	-0.0	-0.0	-0.0	-0.0	-0.0	-0.0	99987.9296875	12285.6630859375	-6284.73193359375
0.2235	-0.0	-0.0	-0.0	-2.915682077407837	29.24944305419922	-284.9537048339844	-7.14088773727417	-40.05355453491211	-362.7099304199219	-0.0	-0.0	-0.0	-0.0	-0.0	-0.0	99166.203125	11652.3095703125	-6081.65869140625
0.224	-0.0	-0.0	-0.0	-2.7216317653656006	29.131023406982425	-287.14093017578125	-5.707175254821777	-39.612449645996094	-359.4523010253906	-0.0	-0.0	-0.0	-0.0	-0.0	-0.0	98358.1796875	11274.353515625	-5813.49755859375
0.2245	-0.0	-0.0	-0.0	-3.25707745552063	29.24932861328125	-283.603515625	-4.672107696533203	-39.62700653076172	-357.7059020996094	-0.0	-0.0	-0.0	-0.0	-0.0	-0.0	97840.390625	10594.3720703125	-5491.3564453125
0.225	-0.0	-0.0	-0.0	-3.028707981109619	29.94781494140625	-283.0207214355469	-3.415592193603516	-39.568115234375	-355.7855224609375	-0.0	-0.0	-0.0	-0.0	-0.0	-0.0	97384.6015625	10401.7373046875	-5109.775390625
